<svg width="47" height="36" viewBox="0 0 47 36" fill="none" xmlns="http://www.w3.org/2000/svg">
<rect width="47" height="36" rx="4" fill="#EAF5FF"/>
<g clip-path="url(#clip0_725_2343)">
<path d="M23.414 11H32C32.2652 11 32.5196 11.1054 32.7071 11.2929C32.8946 11.4804 33 11.7348 33 12V26C33 26.2652 32.8946 26.5196 32.7071 26.7071C32.5196 26.8946 32.2652 27 32 27H14C13.7348 27 13.4804 26.8946 13.2929 26.7071C13.1054 26.5196 13 26.2652 13 26V10C13 9.73478 13.1054 9.48043 13.2929 9.29289C13.4804 9.10536 13.7348 9 14 9H21.414L23.414 11Z" fill="#66B7F1"/>
</g>
<defs>
<clipPath id="clip0_725_2343">
<rect width="24" height="24" fill="white" transform="translate(11 6)"/>
</clipPath>
</defs>
</svg>
